<mxfile host="app.diagrams.net" agent="Mozilla/5.0 (Windows NT 10.0; Win64; x64) AppleWebKit/537.36 (KHTML, like Gecko) Chrome/131.0.0.0 Safari/537.36" version="24.9.0">
  <diagram name="หน้า-1" id="YiNgChfudK5enAdJfATD">
    <mxGraphModel dx="1050" dy="530" grid="1" gridSize="10" guides="1" tooltips="1" connect="1" arrows="1" fold="1" page="1" pageScale="1" pageWidth="827" pageHeight="1169" math="0" shadow="0">
      <root>
        <mxCell id="0" />
        <mxCell id="1" parent="0" />
        <mxCell id="NtcYz2ANpPB8qsCfeR3Y-3" value="" style="edgeStyle=orthogonalEdgeStyle;rounded=0;orthogonalLoop=1;jettySize=auto;html=1;" edge="1" parent="1" source="NtcYz2ANpPB8qsCfeR3Y-1" target="NtcYz2ANpPB8qsCfeR3Y-2">
          <mxGeometry relative="1" as="geometry" />
        </mxCell>
        <mxCell id="NtcYz2ANpPB8qsCfeR3Y-1" value="Start" style="ellipse;whiteSpace=wrap;html=1;" vertex="1" parent="1">
          <mxGeometry x="354" y="10" width="120" height="80" as="geometry" />
        </mxCell>
        <mxCell id="NtcYz2ANpPB8qsCfeR3Y-5" value="" style="edgeStyle=orthogonalEdgeStyle;rounded=0;orthogonalLoop=1;jettySize=auto;html=1;" edge="1" parent="1" source="NtcYz2ANpPB8qsCfeR3Y-2" target="NtcYz2ANpPB8qsCfeR3Y-4">
          <mxGeometry relative="1" as="geometry" />
        </mxCell>
        <mxCell id="NtcYz2ANpPB8qsCfeR3Y-2" value="Input a" style="shape=parallelogram;perimeter=parallelogramPerimeter;whiteSpace=wrap;html=1;fixedSize=1;" vertex="1" parent="1">
          <mxGeometry x="354" y="180" width="120" height="60" as="geometry" />
        </mxCell>
        <mxCell id="NtcYz2ANpPB8qsCfeR3Y-7" value="F" style="edgeStyle=orthogonalEdgeStyle;rounded=0;orthogonalLoop=1;jettySize=auto;html=1;" edge="1" parent="1" source="NtcYz2ANpPB8qsCfeR3Y-4" target="NtcYz2ANpPB8qsCfeR3Y-6">
          <mxGeometry relative="1" as="geometry" />
        </mxCell>
        <mxCell id="NtcYz2ANpPB8qsCfeR3Y-11" value="T" style="edgeStyle=orthogonalEdgeStyle;rounded=0;orthogonalLoop=1;jettySize=auto;html=1;" edge="1" parent="1" source="NtcYz2ANpPB8qsCfeR3Y-4" target="NtcYz2ANpPB8qsCfeR3Y-10">
          <mxGeometry relative="1" as="geometry" />
        </mxCell>
        <mxCell id="NtcYz2ANpPB8qsCfeR3Y-4" value="a / 2&amp;nbsp;fractions = 0" style="rhombus;whiteSpace=wrap;html=1;" vertex="1" parent="1">
          <mxGeometry x="351" y="310" width="126" height="80" as="geometry" />
        </mxCell>
        <mxCell id="NtcYz2ANpPB8qsCfeR3Y-9" value="F" style="edgeStyle=orthogonalEdgeStyle;rounded=0;orthogonalLoop=1;jettySize=auto;html=1;" edge="1" parent="1" source="NtcYz2ANpPB8qsCfeR3Y-6" target="NtcYz2ANpPB8qsCfeR3Y-8">
          <mxGeometry relative="1" as="geometry" />
        </mxCell>
        <mxCell id="NtcYz2ANpPB8qsCfeR3Y-13" value="T" style="edgeStyle=orthogonalEdgeStyle;rounded=0;orthogonalLoop=1;jettySize=auto;html=1;" edge="1" parent="1" source="NtcYz2ANpPB8qsCfeR3Y-6" target="NtcYz2ANpPB8qsCfeR3Y-12">
          <mxGeometry relative="1" as="geometry" />
        </mxCell>
        <mxCell id="NtcYz2ANpPB8qsCfeR3Y-6" value="a / 2&amp;nbsp;fractions = 1" style="rhombus;whiteSpace=wrap;html=1;" vertex="1" parent="1">
          <mxGeometry x="580" y="310" width="110" height="80" as="geometry" />
        </mxCell>
        <mxCell id="NtcYz2ANpPB8qsCfeR3Y-21" style="edgeStyle=orthogonalEdgeStyle;rounded=0;orthogonalLoop=1;jettySize=auto;html=1;exitX=0.5;exitY=1;exitDx=0;exitDy=0;entryX=1;entryY=0.5;entryDx=0;entryDy=0;" edge="1" parent="1" source="NtcYz2ANpPB8qsCfeR3Y-8" target="NtcYz2ANpPB8qsCfeR3Y-18">
          <mxGeometry relative="1" as="geometry" />
        </mxCell>
        <mxCell id="NtcYz2ANpPB8qsCfeR3Y-8" value="Output Error" style="shape=parallelogram;perimeter=parallelogramPerimeter;whiteSpace=wrap;html=1;fixedSize=1;" vertex="1" parent="1">
          <mxGeometry x="765" y="320" width="120" height="60" as="geometry" />
        </mxCell>
        <mxCell id="NtcYz2ANpPB8qsCfeR3Y-16" style="edgeStyle=orthogonalEdgeStyle;rounded=0;orthogonalLoop=1;jettySize=auto;html=1;exitX=0.5;exitY=1;exitDx=0;exitDy=0;entryX=0;entryY=0.5;entryDx=0;entryDy=0;" edge="1" parent="1" source="NtcYz2ANpPB8qsCfeR3Y-10" target="NtcYz2ANpPB8qsCfeR3Y-14">
          <mxGeometry relative="1" as="geometry" />
        </mxCell>
        <mxCell id="NtcYz2ANpPB8qsCfeR3Y-10" value="Output a is an even integer" style="shape=parallelogram;perimeter=parallelogramPerimeter;whiteSpace=wrap;html=1;fixedSize=1;" vertex="1" parent="1">
          <mxGeometry x="346" y="480" width="136" height="60" as="geometry" />
        </mxCell>
        <mxCell id="NtcYz2ANpPB8qsCfeR3Y-17" style="edgeStyle=orthogonalEdgeStyle;rounded=0;orthogonalLoop=1;jettySize=auto;html=1;exitX=0.5;exitY=1;exitDx=0;exitDy=0;entryX=1;entryY=0.5;entryDx=0;entryDy=0;" edge="1" parent="1" source="NtcYz2ANpPB8qsCfeR3Y-12" target="NtcYz2ANpPB8qsCfeR3Y-14">
          <mxGeometry relative="1" as="geometry" />
        </mxCell>
        <mxCell id="NtcYz2ANpPB8qsCfeR3Y-12" value="Output a is an odd integer" style="shape=parallelogram;perimeter=parallelogramPerimeter;whiteSpace=wrap;html=1;fixedSize=1;" vertex="1" parent="1">
          <mxGeometry x="567.5" y="480" width="135" height="60" as="geometry" />
        </mxCell>
        <mxCell id="NtcYz2ANpPB8qsCfeR3Y-20" style="edgeStyle=orthogonalEdgeStyle;rounded=0;orthogonalLoop=1;jettySize=auto;html=1;exitX=0.5;exitY=1;exitDx=0;exitDy=0;entryX=0;entryY=0.5;entryDx=0;entryDy=0;" edge="1" parent="1" source="NtcYz2ANpPB8qsCfeR3Y-14" target="NtcYz2ANpPB8qsCfeR3Y-18">
          <mxGeometry relative="1" as="geometry" />
        </mxCell>
        <mxCell id="NtcYz2ANpPB8qsCfeR3Y-14" value="" style="ellipse;whiteSpace=wrap;html=1;aspect=fixed;" vertex="1" parent="1">
          <mxGeometry x="520" y="575" width="10" height="10" as="geometry" />
        </mxCell>
        <mxCell id="NtcYz2ANpPB8qsCfeR3Y-23" value="" style="edgeStyle=orthogonalEdgeStyle;rounded=0;orthogonalLoop=1;jettySize=auto;html=1;" edge="1" parent="1" source="NtcYz2ANpPB8qsCfeR3Y-18" target="NtcYz2ANpPB8qsCfeR3Y-22">
          <mxGeometry relative="1" as="geometry" />
        </mxCell>
        <mxCell id="NtcYz2ANpPB8qsCfeR3Y-18" value="" style="ellipse;whiteSpace=wrap;html=1;aspect=fixed;" vertex="1" parent="1">
          <mxGeometry x="630" y="640" width="10" height="10" as="geometry" />
        </mxCell>
        <mxCell id="NtcYz2ANpPB8qsCfeR3Y-22" value="End" style="ellipse;whiteSpace=wrap;html=1;" vertex="1" parent="1">
          <mxGeometry x="575" y="700" width="120" height="80" as="geometry" />
        </mxCell>
      </root>
    </mxGraphModel>
  </diagram>
</mxfile>
